<svg width="259" height="55" viewBox="0 0 259 55" fill="none" xmlns="http://www.w3.org/2000/svg">
<path d="M20.1875 34.6094L14.2344 40.4688V55H0.640625V0.390625H14.2344V23.1719L18.8281 16.9844L32 0.390625H48.9688L29.375 24.9062L49.4844 55H33.4531L20.1875 34.6094ZM87.2188 44.5938H66.0781L62.2344 55H48.6406L70.25 0.390625H83L104.797 55H91.1094L87.2188 44.5938ZM69.7344 34.6562H83.4688L76.5781 16.1875L69.7344 34.6562ZM143.281 44.5938H122.141L118.297 55H104.703L126.312 0.390625H139.062L160.859 55H147.172L143.281 44.5938ZM125.797 34.6562H139.531L132.641 16.1875L125.797 34.6562ZM165.453 55V0.390625H186.547C193.828 0.390625 199.422 1.6875 203.328 4.28125C207.234 6.84375 209.188 10.5781 209.188 15.4844C209.188 18.2344 208.469 20.6562 207.031 22.75C205.625 24.8125 203.594 26.3281 200.938 27.2969C204 28.0781 206.344 29.5625 207.969 31.75C209.594 33.9375 210.406 36.4688 210.406 39.3438C210.406 44.75 208.547 48.7188 204.828 51.25C201.109 53.75 195.703 55 188.609 55H165.453ZM179.047 32.2656V44.125H188.609C191.234 44.125 193.266 43.6094 194.703 42.5781C196.141 41.5156 196.859 40.125 196.859 38.4062C196.859 34.4375 194.469 32.3906 189.688 32.2656H179.047ZM179.047 23.125H187.391C192.859 23.125 195.594 21.2188 195.594 17.4062C195.594 15.2188 194.922 13.6719 193.578 12.7656C192.266 11.8281 190.25 11.3594 187.531 11.3594H179.047V23.125ZM254.75 32.2656H232.203V44.125H258.734V55H218.609V0.390625H258.781V11.3594H232.203V21.3438H254.75V32.2656Z" fill="black"/>
</svg>
